<?xml version="1.0" encoding="UTF-8" standalone="no"?>
<svg xmlns:dc="http://purl.org/dc/elements/1.1/" xmlns:cc="http://creativecommons.org/ns#" xmlns:rdf="http://www.w3.org/1999/02/22-rdf-syntax-ns#" xmlns:svg="http://www.w3.org/2000/svg" xmlns="http://www.w3.org/2000/svg" version="1.1" width="26.767784" height="32" id="svg3056">
  <defs id="defs3058" />
  <g transform="translate(5,-31)" id="layer1">
    <g id="text2989" style="font-size:32px;font-style:normal;font-variant:normal;font-weight:normal;font-stretch:normal;text-align:center;line-height:125%;letter-spacing:0px;word-spacing:0px;text-anchor:middle;fill:#000;fill-opacity:1;stroke:none;font-family:FreeSans;-inkscape-font-specification:FreeSans">
      <path d="m 16.511787,48.196184 0,-4.895937 -2.783964,0 0,4.799938 c -0.03002,1.347329 -0.35401,2.468647 -0.971987,3.363957 -0.618007,0.895332 -1.349997,1.640655 -2.195972,2.235971 L 3.263958,43.300247 0,43.300247 4.735939,50.020161 c -1.2506557,0.842001 -2.301308,1.957985 -3.1519599,3.347957 -0.85065875,1.389989 -1.29331912,2.897968 -1.3279824,4.523941 l 0,4.607941 2.7839642,0 0,-4.511942 C 3.1299554,56.300753 3.5739495,54.955439 4.3719444,53.95211 5.1699269,52.948799 5.7819182,52.331474 6.2079201,52.100134 L 13.503826,62.5 l 3.263958,0 -4.735939,-6.719913 c 1.208636,-0.809982 2.247288,-1.885967 3.115959,-3.227959 0.868638,-1.341972 1.323299,-2.793952 1.363983,-4.355944 z" id="path2985" />
    </g>
  </g>
</svg>
