<?xml version="1.0" encoding="UTF-8" standalone="no"?>
<!DOCTYPE svg PUBLIC "-//W3C//DTD SVG 1.1//EN" "http://www.w3.org/Graphics/SVG/1.1/DTD/svg11.dtd">
<svg width="100%" height="100%" viewBox="0 0 68 114" version="1.1" xmlns="http://www.w3.org/2000/svg" xmlns:xlink="http://www.w3.org/1999/xlink" xml:space="preserve" xmlns:serif="http://www.serif.com/" style="fill-rule:evenodd;clip-rule:evenodd;stroke-linejoin:round;stroke-miterlimit:2;">
    <g transform="matrix(1,0,0,1,321.038,-7308)">
        <g transform="matrix(0.423395,0,0,1.71201,-502.159,7223.31)">
            <g transform="matrix(0.807417,-0.0352041,-6.35504e-34,0.196127,-18107.2,48.7578)">
                <path d="M23021.3,4358.98C23021.3,4354.6 23017.9,4351.04 23013.7,4351.04L22963.5,4351.04C22959.3,4351.04 22955.9,4354.6 22955.9,4358.98L22955.9,4455.63C22955.9,4460.02 22959.3,4463.58 22963.5,4463.58L23013.7,4463.58C23017.9,4463.58 23021.3,4460.02 23021.3,4455.63L23021.3,4358.98Z" style="fill:white;"/>
            </g>
            <g transform="matrix(0.807417,-0.0352041,-6.35504e-34,0.196127,-18001.6,6.3127)">
                <path d="M23021.3,4358.98C23021.3,4354.6 23017.9,4351.04 23013.7,4351.04L22963.5,4351.04C22959.3,4351.04 22955.9,4354.6 22955.9,4358.98L22955.9,4455.63C22955.9,4460.02 22959.3,4463.58 22963.5,4463.58L23013.7,4463.58C23017.9,4463.58 23021.3,4460.02 23021.3,4455.63L23021.3,4358.98Z" style="fill:rgb(255,199,59);"/>
            </g>
            <g transform="matrix(0.865089,-0.0377187,0.904903,0.49289,-23368.4,-1222.59)">
                <path d="M23021.3,4354.17C23021.3,4352.44 23017.9,4351.04 23013.7,4351.04L22963.5,4351.04C22959.3,4351.04 22955.9,4352.44 22955.9,4354.17L22955.9,4460.44C22955.9,4462.17 22959.3,4463.58 22963.5,4463.58L23013.7,4463.58C23017.9,4463.58 23021.3,4462.17 23021.3,4460.44L23021.3,4354.17Z" style="fill:white;"/>
            </g>
        </g>
    </g>
</svg>
