<?xml version="1.0" encoding="UTF-8" standalone="no"?>
<!DOCTYPE svg PUBLIC "-//W3C//DTD SVG 1.1//EN" "http://www.w3.org/Graphics/SVG/1.1/DTD/svg11.dtd">
<svg width="100%" height="100%" viewBox="0 0 120 97" version="1.1" xmlns="http://www.w3.org/2000/svg" xmlns:xlink="http://www.w3.org/1999/xlink" xml:space="preserve" >
    <g transform="matrix(1,0,0,1,-664.373,-11525.8)">
        <g transform="matrix(1,0,0,9.20507,0,1353.83)">
            <g transform="matrix(5.84064,0,0,0.634502,653.983,1102.7)">
                <path d="M22.162,5.656C21.399,5.994 20.589,6.215 19.76,6.314C20.634,5.792 21.288,4.969 21.6,4C20.78,4.488 19.881,4.83 18.944,5.015C18.154,4.169 17.046,3.689 15.889,3.689C13.595,3.689 11.707,5.576 11.707,7.871C11.707,8.193 11.744,8.515 11.818,8.829C8.457,8.661 5.321,7.071 3.198,4.459C2.826,5.097 2.631,5.823 2.632,6.562C2.632,8.012 3.37,9.293 4.492,10.043C3.828,10.022 3.179,9.843 2.598,9.52L2.598,9.572C2.598,11.555 4.009,13.28 5.953,13.673C5.337,13.84 4.69,13.865 4.063,13.745C4.609,15.445 6.185,16.617 7.97,16.65C6.219,18.025 3.99,18.649 1.779,18.382C3.69,19.611 5.916,20.264 8.189,20.262C15.882,20.262 20.089,13.889 20.089,8.362C20.089,8.182 20.084,8 20.076,7.822C20.895,7.23 21.602,6.497 22.163,5.657L22.162,5.656Z"/>
            </g>
        </g>
    </g>
</svg>
