<svg xmlns="http://www.w3.org/2000/svg" width="100" height="100" viewBox="0 0 292 280"><style>.a{fill:#fff;}.b{fill:#3d404a;}.c{fill:#489cff;}</style><path d="M284.2 38.1c0-17.1-13.9-30.9-30.9-30.9l-215.1 0c-17.1 0-30.9 13.9-30.9 30.9l0 203c0 17.1 13.9 30.9 30.9 30.9l215.1 0c17.1 0 30.9-13.9 30.9-30.9l0-203Z" style="fill:#fff;stroke-width:8px;stroke:#3d404a"/><path d="M127.6 169c0-2.4-1.9-4-4.2-3.6l-27.8 4.9c-2.3 0.4-4.2 2.7-4.2 5.1l0 52.5c0 2.4 1.9 4 4.2 3.6l27.8-4.9c2.3-0.4 4.2-2.7 4.2-5l0-52.4Z" class="a"/><path d="M127.6 169c0-2.4-1.9-4-4.2-3.6l-27.8 4.9c-2.3 0.4-4.2 2.7-4.2 5.1l0 52.5c0 2.4 1.9 4 4.2 3.6l27.8-4.9c2.3-0.4 4.2-2.7 4.2-5l0-52.4Zm-28.1 8.8l0 44.8 20.1-3.5 0-44.8 -20.1 3.6Z" class="b"/><path d="M199.9 51.5c0-2.4-1.9-4-4.2-3.6l-27.8 4.9c-2.3 0.4-4.2 2.7-4.2 5.1l0 52.5c0 2.4 1.9 4 4.2 3.6l27.8-4.9c2.3-0.4 4.2-2.7 4.2-5l0-52.4Z" class="c"/><path d="M199.9 51.5c0-2.4-1.9-4-4.2-3.6l-27.8 4.9c-2.3 0.4-4.2 2.7-4.2 5.1l0 52.5c0 2.4 1.9 4 4.2 3.6l27.8-4.9c2.3-0.4 4.2-2.7 4.2-5l0-52.4Zm-28.1 8.8l0 44.8 20.1-3.5 0-44.8 -20.1 3.5Z" class="c"/><path d="M132.2 63.8c-1.1-2.4-4-3.9-6.4-3.5l-29.8 5.2c-2.5 0.4-3.6 2.7-2.5 5.1l65.8 144.9c1.1 2.4 4 3.9 6.4 3.5l29.8-5.2c2.5-0.4 3.6-2.7 2.5-5.1l-65.8-144.9Z" class="a"/><path d="M132.2 63.8c-1.1-2.4-4-3.9-6.4-3.5l-29.8 5.2c-2.5 0.4-3.6 2.7-2.5 5.1l65.8 144.9c1.1 2.4 4 3.9 6.4 3.5l29.8-5.2c2.5-0.4 3.6-2.7 2.5-5.1l-65.8-144.9Zm-29.1 8.6l62.9 138.4 22.4-4 -62.9-138.4 -22.4 4Z" class="b"/></svg>
