<?xml version="1.0" encoding="UTF-8" standalone="no"?><!DOCTYPE svg PUBLIC "-//W3C//DTD SVG 1.1//EN" "http://www.w3.org/Graphics/SVG/1.1/DTD/svg11.dtd"><svg width="100%" height="100%" viewBox="0 0 111 655" version="1.1" xmlns="http://www.w3.org/2000/svg" xmlns:xlink="http://www.w3.org/1999/xlink" xml:space="preserve" xmlns:serif="http://www.serif.com/" style="fill-rule:evenodd;clip-rule:evenodd;stroke-linejoin:round;stroke-miterlimit:2;"><path id="path1814" d="M72.924,632.461c-1.432,0 -2.398,1.129 -2.153,2.519l2.951,16.724c0.245,1.39 1.608,2.519 3.043,2.519l31.586,-0.003c1.432,-0.001 2.398,-1.13 2.153,-2.52l-2.951,-16.723c-0.245,-1.39 -1.607,-2.519 -3.042,-2.519l-31.587,0.003Z" /><g id="g1818"><g id="g1824"><path id="path1832" d="M2.191,588.944c-1.435,0.001 -2.398,1.129 -2.153,2.52l2.949,16.723c0.247,1.39 1.61,2.519 3.042,2.519l31.586,-0.003c1.435,-0.001 2.398,-1.129 2.154,-2.52l-2.949,-16.723c-0.247,-1.39 -1.61,-2.519 -3.042,-2.519l-31.587,0.003Z" style="fill:#598bed;fill-rule:nonzero;"/></g></g><path id="path1834" d="M9.572,629.743c-1.422,0.646 -2.363,2.379 -2.098,3.869l3.158,17.918c0.265,1.49 1.633,2.175 3.055,1.529l87.278,-39.638c1.422,-0.646 2.363,-2.38 2.101,-3.869l-3.161,-17.918c-0.265,-1.49 -1.632,-2.175 -3.052,-1.529l-87.281,39.638Z" /><path id="path1836" d="M55.054,475.058c17.626,-0.002 29.344,-11.416 29.343,-25.682c-0.001,-8.967 -4.282,-15.386 -9.173,-18.748l8.255,-0.001l-0.002,-14.368l-56.452,0.006l0.002,14.367l8.049,-0.001c-4.69,3.364 -8.965,9.58 -8.964,18.649c0.002,14.368 11.311,25.78 28.942,25.778Zm0.197,-44.428c10.702,-0.002 16.61,7.131 16.611,14.977c0,7.643 -6.111,14.878 -16.809,14.879c-10.702,0.001 -16.41,-7.233 -16.411,-14.876c-0,-7.846 5.911,-14.979 16.609,-14.98Z" /><path id="path1838" d="M83.476,404.337l-0.001,-14.266l-75.406,0.007l0.001,14.266l75.406,-0.007Z" /><path id="path1840" d="M37.817,353.799c-0,-7.337 4.689,-13.247 12.128,-13.452l0.003,26.8c-7.745,-1.121 -12.13,-6.521 -12.131,-13.348Zm27.92,-26.802l0.002,15.386c3.77,1.834 6.829,5.196 6.829,11.311c0.001,7.133 -4.689,12.839 -13.044,13.553l-0.004,-41.269c-1.832,-0.306 -3.669,-0.407 -5.502,-0.407c-16.814,0.002 -27.917,11.518 -27.915,27.821c0.002,16.712 11.311,28.327 29.143,28.326c17.731,-0.002 29.143,-11.925 29.141,-28.331c-0.001,-13.96 -8.257,-23.335 -18.65,-26.39l0,-0Z" /><path id="path1842" d="M35.164,302.951l-8.15,0.001l0.002,14.266l83.353,-0.008l-0.001,-14.266l-34.951,0.003c4.585,-3.465 8.964,-9.783 8.963,-18.648c-0.001,-14.47 -11.721,-25.78 -29.347,-25.778c-17.631,0.002 -28.938,11.313 -28.937,25.783c0.001,8.764 4.277,15.285 9.068,18.647Zm19.87,-29.859c10.698,-0.001 16.811,7.234 16.812,14.978c0.001,7.643 -5.906,14.878 -16.608,14.879c-10.698,0.001 -16.611,-7.233 -16.611,-14.876c-0.001,-7.744 5.705,-14.98 16.407,-14.981Z" /><path id="path1844" d="M83.461,250.162l-0.001,-14.265l-31.182,0.003c-9.071,0 -13.962,-4.992 -13.963,-12.737c-0.001,-7.54 4.89,-12.534 13.96,-12.535l31.182,-0.003l-0.001,-14.266l-33.119,0.003c-15.589,0.002 -24.148,9.276 -24.147,22.013c0.001,7.541 3.06,13.858 7.846,17.526l-25.981,0.003l0.002,14.266l75.404,-0.008Z" /><path id="path1846" d="M83.455,184.845l-0.002,-14.266l-56.452,0.005l0.001,14.266l56.453,-0.005Z" /><path id="path1848" d="M26.995,105.265l0.001,14.369l31.077,-0.003c9.071,-0.001 13.962,4.89 13.963,12.634c0.001,7.541 -4.89,12.535 -13.96,12.536l-31.077,0.003l0.001,14.266l33.115,-0.004c15.488,-0.001 24.047,-9.479 24.046,-22.624c-0.001,-7.031 -3.055,-13.247 -7.846,-16.812l7.133,-0.001l-0.001,-14.369l-56.452,0.005Z" /><path id="path1850" d="M83.438,14.262l-0.001,-14.262l-33.119,0.003c-15.589,0.002 -24.148,9.579 -24.147,23.13c0.001,8.255 4.382,15.693 10.805,19.362c-7.033,3.875 -10.802,11.109 -10.801,19.87c0.001,7.033 2.955,13.045 7.645,16.609l-6.828,0l0.002,14.267l56.452,-0.005l-0.002,-14.267l-31.182,0.003c-8.965,0.001 -13.656,-4.99 -13.657,-12.734c-0.001,-7.539 4.689,-12.535 13.655,-12.536l31.182,-0.003l-0.002,-14.267l-31.181,0.003c-8.966,0.001 -13.657,-4.99 -13.658,-12.634c-0,-7.539 4.689,-12.535 13.655,-12.536l31.182,-0.003Z" /><path id="path1852" d="M3.39,170.385c-1.157,0.001 -1.932,0.91 -1.736,2.03l1.842,10.439c0.197,1.12 1.295,2.029 2.448,2.029l13.023,-0.001c1.153,-0 1.932,-0.91 1.732,-2.03l-1.843,-10.438c-0.196,-1.12 -1.294,-2.03 -2.448,-2.03l-13.018,0.001Z" /></svg>
