<?xml version="1.0" encoding="UTF-8" standalone="no"?>
<svg
   xmlns:dc="http://purl.org/dc/elements/1.1/"
   xmlns:cc="http://creativecommons.org/ns#"
   xmlns:rdf="http://www.w3.org/1999/02/22-rdf-syntax-ns#"
   xmlns:svg="http://www.w3.org/2000/svg"
   xmlns="http://www.w3.org/2000/svg"
   xmlns:sodipodi="http://sodipodi.sourceforge.net/DTD/sodipodi-0.dtd"
   xmlns:inkscape="http://www.inkscape.org/namespaces/inkscape"
   width="100%"
   height="100%"
   viewBox="0 0 241 53"
   version="1.1"
   xml:space="preserve"
   style="fill-rule:evenodd;clip-rule:evenodd;stroke-linejoin:round;stroke-miterlimit:2;"
   id="svg62"
   sodipodi:docname="logo-h.svg"
   inkscape:export-filename="/home/alois/alephium/alephium-webextension/src/images/logo.png"
   inkscape:export-xdpi="73.840149"
   inkscape:export-ydpi="73.840149"
   inkscape:version="0.92.4 (5da689c313, 2019-01-14)"><metadata
   id="metadata68"><rdf:RDF><cc:Work
       rdf:about=""><dc:format>image/svg+xml</dc:format><dc:type
         rdf:resource="http://purl.org/dc/dcmitype/StillImage" /></cc:Work></rdf:RDF></metadata><defs
   id="defs66" /><sodipodi:namedview
   pagecolor="#ffffff"
   bordercolor="#666666"
   borderopacity="1"
   objecttolerance="10"
   gridtolerance="10"
   guidetolerance="10"
   inkscape:pageopacity="0"
   inkscape:pageshadow="2"
   inkscape:window-width="1918"
   inkscape:window-height="1078"
   id="namedview64"
   showgrid="false"
   inkscape:zoom="1.3485477"
   inkscape:cx="-13.718462"
   inkscape:cy="26.5"
   inkscape:window-x="0"
   inkscape:window-y="0"
   inkscape:window-maximized="0"
   inkscape:current-layer="svg62" />
    <g
   transform="matrix(1,0,0,1,-125.915,-197.924)"
   id="g60">
        <g
   transform="matrix(1,0,0,1,0,173.577)"
   id="g58">
            <g
   transform="matrix(1,0,0,1,-25.2459,-17.3183)"
   id="g56">
                <g
   transform="matrix(0.0983346,0,0,0.0983346,-4263.49,-2513.56)"
   id="g40">
                    <g
   transform="matrix(1.60565,0,0,1,4471.56,18748)"
   id="g34">
                        <g
   transform="matrix(249.121,0,0,400,25528.9,7633.96)"
   id="g4">
                            <path
   d="M0.033,-0.279C0.033,-0.106 0.145,0.009 0.285,0.009C0.373,0.009 0.436,-0.033 0.469,-0.081L0.469,0L0.61,0L0.61,-0.554L0.469,-0.554L0.469,-0.475C0.436,-0.521 0.375,-0.563 0.286,-0.563C0.145,-0.563 0.033,-0.452 0.033,-0.279ZM0.469,-0.277C0.469,-0.172 0.399,-0.114 0.322,-0.114C0.247,-0.114 0.176,-0.174 0.176,-0.279C0.176,-0.384 0.247,-0.44 0.322,-0.44C0.399,-0.44 0.469,-0.382 0.469,-0.277Z"
   style="fill:rgb(32,32,62);fill-rule:nonzero;"
   id="path2" />
                        </g>
                        <g
   transform="matrix(249.121,0,0,400,25692.8,7633.96)"
   id="g8">
                            <rect
   x="0.069"
   y="-0.74"
   width="0.14"
   height="0.74"
   style="fill:rgb(32,32,62);fill-rule:nonzero;"
   id="rect6" />
                        </g>
                        <g
   transform="matrix(249.121,0,0,400,25757.1,7633.96)"
   id="g12">
                            <path
   d="M0.307,-0.448C0.379,-0.448 0.437,-0.402 0.439,-0.329L0.176,-0.329C0.187,-0.405 0.24,-0.448 0.307,-0.448ZM0.57,-0.174L0.419,-0.174C0.401,-0.137 0.368,-0.107 0.308,-0.107C0.238,-0.107 0.182,-0.153 0.175,-0.235L0.58,-0.235C0.583,-0.253 0.584,-0.271 0.584,-0.289C0.584,-0.454 0.471,-0.563 0.311,-0.563C0.147,-0.563 0.033,-0.452 0.033,-0.277C0.033,-0.103 0.15,0.009 0.311,0.009C0.448,0.009 0.54,-0.072 0.57,-0.174Z"
   style="fill:rgb(32,32,62);fill-rule:nonzero;"
   id="path10" />
                        </g>
                        <g
   transform="matrix(249.121,0,0,400,25905.8,7633.96)"
   id="g16">
                            <path
   d="M0.209,-0.474L0.209,-0.554L0.069,-0.554L0.069,0.264L0.209,0.264L0.209,-0.079C0.243,-0.034 0.305,0.009 0.392,0.009C0.534,0.009 0.645,-0.106 0.645,-0.279C0.645,-0.452 0.534,-0.563 0.392,-0.563C0.306,-0.563 0.242,-0.521 0.209,-0.474ZM0.502,-0.279C0.502,-0.174 0.431,-0.114 0.355,-0.114C0.28,-0.114 0.209,-0.172 0.209,-0.277C0.209,-0.382 0.28,-0.44 0.355,-0.44C0.431,-0.44 0.502,-0.384 0.502,-0.279Z"
   style="fill:rgb(32,32,62);fill-rule:nonzero;"
   id="path14" />
                        </g>
                        <g
   transform="matrix(249.121,0,0,400,26069.8,7633.96)"
   id="g20">
                            <path
   d="M0.069,0L0.209,0L0.209,-0.306C0.209,-0.395 0.258,-0.443 0.334,-0.443C0.408,-0.443 0.457,-0.395 0.457,-0.306L0.457,0L0.597,0L0.597,-0.325C0.597,-0.478 0.506,-0.562 0.381,-0.562C0.307,-0.562 0.245,-0.532 0.209,-0.485L0.209,-0.74L0.069,-0.74L0.069,0Z"
   style="fill:rgb(32,32,62);fill-rule:nonzero;"
   id="path18" />
                        </g>
                        <g
   transform="matrix(249.121,0,0,400,26229.5,7633.96)"
   id="g24">
                            <rect
   x="0.069"
   y="-0.554"
   width="0.14"
   height="0.554"
   style="fill:rgb(32,32,62);fill-rule:nonzero;"
   id="rect22" />
                        </g>
                        <g
   transform="matrix(249.121,0,0,400,26293.7,7633.96)"
   id="g28">
                            <path
   d="M0.592,-0.554L0.451,-0.554L0.451,-0.249C0.451,-0.16 0.403,-0.112 0.327,-0.112C0.253,-0.112 0.204,-0.16 0.204,-0.249L0.204,-0.554L0.064,-0.554L0.064,-0.229C0.064,-0.077 0.157,0.007 0.286,0.007C0.355,0.007 0.416,-0.023 0.451,-0.07L0.451,0L0.592,0L0.592,-0.554Z"
   style="fill:rgb(32,32,62);fill-rule:nonzero;"
   id="path26" />
                        </g>
                        <g
   transform="matrix(249.121,0,0,400,26453.4,7633.96)"
   id="g32">
                            <path
   d="M0.844,0L0.984,0L0.984,-0.325C0.984,-0.478 0.89,-0.562 0.757,-0.562C0.676,-0.562 0.603,-0.519 0.567,-0.456C0.529,-0.525 0.458,-0.562 0.372,-0.562C0.303,-0.562 0.244,-0.533 0.209,-0.487L0.209,-0.554L0.069,-0.554L0.069,0L0.209,0L0.209,-0.306C0.209,-0.394 0.258,-0.44 0.334,-0.44C0.408,-0.44 0.457,-0.394 0.457,-0.306L0.457,0L0.597,0L0.597,-0.306C0.597,-0.394 0.646,-0.44 0.721,-0.44C0.795,-0.44 0.844,-0.394 0.844,-0.306L0.844,0Z"
   style="fill:rgb(32,32,62);fill-rule:nonzero;"
   id="path30" />
                        </g>
                    </g>
                    <g
   transform="matrix(0.870175,-0.153435,5.55112e-17,0.600104,26638.6,26980.7)"
   id="g38">
                        <path
   d="M23021.3,4364.73C23021.3,4357.17 23017.2,4351.04 23012.2,4351.04L22965.1,4351.04C22960,4351.04 22955.9,4357.17 22955.9,4364.73L22955.9,4449.89C22955.9,4457.44 22960,4463.58 22965.1,4463.58L23012.2,4463.58C23017.2,4463.58 23021.3,4457.44 23021.3,4449.89L23021.3,4364.73Z"
   style="fill:rgb(32,32,62);"
   id="path36" />
                    </g>
                </g>
                <g
   transform="matrix(0.857644,0,0,0.857924,-142.761,-10.0077)"
   id="g54">
                    <g
   transform="matrix(0.182619,-0.032196,-1.43736e-34,0.179369,-3849.48,59.5806)"
   id="g44">
                        <path
   d="M23021.3,4358.98C23021.3,4354.6 23017.9,4351.04 23013.7,4351.04L22963.5,4351.04C22959.3,4351.04 22955.9,4354.6 22955.9,4358.98L22955.9,4455.63C22955.9,4460.02 22959.3,4463.58 22963.5,4463.58L23013.7,4463.58C23017.9,4463.58 23021.3,4460.02 23021.3,4455.63L23021.3,4358.98Z"
   style="fill:rgb(32,32,62);"
   id="path42" />
                    </g>
                    <g
   transform="matrix(0.182619,-0.032196,-1.43736e-34,0.179369,-3825.6,20.7623)"
   id="g48">
                        <path
   d="M23021.3,4358.98C23021.3,4354.6 23017.9,4351.04 23013.7,4351.04L22963.5,4351.04C22959.3,4351.04 22955.9,4354.6 22955.9,4358.98L22955.9,4455.63C22955.9,4460.02 22959.3,4463.58 22963.5,4463.58L23013.7,4463.58C23017.9,4463.58 23021.3,4460.02 23021.3,4455.63L23021.3,4358.98Z"
   style="fill:rgb(255,77,68);"
   id="path46" />
                    </g>
                    <g
   transform="matrix(0.195663,-0.0344957,0.204668,0.450774,-5039.44,-1103.13)"
   id="g52">
                        <path
   d="M23021.3,4354.17C23021.3,4352.44 23017.9,4351.04 23013.7,4351.04L22963.5,4351.04C22959.3,4351.04 22955.9,4352.44 22955.9,4354.17L22955.9,4460.44C22955.9,4462.17 22959.3,4463.58 22963.5,4463.58L23013.7,4463.58C23017.9,4463.58 23021.3,4462.17 23021.3,4460.44L23021.3,4354.17Z"
   style="fill:rgb(32,32,62);"
   id="path50" />
                    </g>
                </g>
            </g>
        </g>
    </g>
</svg>