<?xml version="1.0" encoding="UTF-8" standalone="no"?>
<!DOCTYPE svg PUBLIC "-//W3C//DTD SVG 1.1//EN" "http://www.w3.org/Graphics/SVG/1.1/DTD/svg11.dtd">
<svg width="100%" height="100%" viewBox="0 0 591 172" version="1.1" xmlns="http://www.w3.org/2000/svg" xmlns:xlink="http://www.w3.org/1999/xlink" style="fill-rule:evenodd;clip-rule:evenodd;stroke-linecap:round;stroke-linejoin:round;stroke-miterlimit:1.5;">
    <g transform="matrix(1,0,0,1,-48.2237,-57.1673)">
        <g transform="matrix(0.670838,0,0,0.473248,0,0)">
            <g transform="matrix(0.894372,0,0,1.6439,-110.725,-172.971)">
                <path d="M330.206,320.237L282.584,293.323L493.262,257.148L344.492,325.542L351.821,362.977L386.343,335.246L493.262,263.229L477.418,377.243L403.263,348.41L351.821,362.977" style="fill:none;stroke:white;stroke-opacity:0.9;stroke-width:4.32px;"/>
            </g>
        </g>
        <g transform="matrix(0.670838,0,0,0.473248,0,0)">
            <g transform="matrix(1.48457,0,0,2.10441,-305.215,-180.054)">
                <path d="M539.525,274.217C531.064,260.965 526.158,245.227 526.158,228.352C526.158,181.224 564.42,142.963 611.548,142.963C653.16,142.963 687.86,172.793 695.412,212.217C695.719,216.353 695.646,218.159 695.412,218.99L624.462,285.238L591.053,247.741L544.057,279.862" style="fill:url(#_Linear1);"/>
            </g>
        </g>
        <g transform="matrix(0.670838,0,0,0.473248,0,0)">
            <g transform="matrix(1.48457,0,0,2.10441,-304.696,-180.054)">
                <path d="M539.525,274.217C531.064,260.965 526.158,245.227 526.158,228.352C526.158,181.224 564.42,142.963 611.548,142.963C653.16,142.963 687.86,172.793 695.412,212.217C695.872,215.455 696.105,217.576 695.872,218.408L624.462,285.238L591.053,247.741L544.122,279.625" style="fill:url(#_Linear2);"/>
            </g>
        </g>
        <g transform="matrix(0.670838,0,0,0.473248,0,0)">
            <g transform="matrix(1.63683,0,0,1.98522,-427.986,-142.412)">
                <path d="M496.711,283.977L525.289,313.742L611.447,242.906L641.673,283.977L758.021,159.596L818.006,242.906" style="fill:none;stroke:url(#_Radial3);stroke-width:2.94px;"/>
            </g>
        </g>
        <g transform="matrix(0.670838,0,0,0.473248,0,0)">
            <g transform="matrix(0.649749,0.0496373,-0.0392471,1.0323,0.454528,41.3311)">
                <path d="M185.501,416.153C247.897,416.153 294.312,393.395 322.17,366.897" style="fill:none;stroke:white;stroke-opacity:0.9;stroke-width:6.47px;stroke-dasharray:6.47,32.35,0,0;"/>
            </g>
        </g>
        <g transform="matrix(0.670838,0,0,0.473248,0,0)">
            <g transform="matrix(1.49067,0,0,2.11306,-444.799,-224.399)">
                <g transform="matrix(1,0,0,1,117.129,5.67137)">
                    <path d="M233.66,185.57L277.345,185.57" style="fill:none;stroke:white;stroke-opacity:0.9;stroke-width:3px;"/>
                </g>
                <g transform="matrix(1,0,0,1,129.938,-4.00941)">
                    <path d="M233.66,185.57L277.345,185.57" style="fill:none;stroke:white;stroke-opacity:0.9;stroke-width:3px;"/>
                </g>
                <g transform="matrix(1,0,0,1,114.452,-13.6902)">
                    <path d="M233.66,185.57L277.345,185.57" style="fill:none;stroke:white;stroke-opacity:0.9;stroke-width:3px;"/>
                </g>
            </g>
        </g>
        <g transform="matrix(0.670838,0,0,0.473248,0,0)">
            <g transform="matrix(1.49067,0,0,2.11306,-308.426,-160.581)">
                <g transform="matrix(1,0,0,1,566.773,106.474)">
                    <path d="M233.66,185.57L277.345,185.57" style="fill:none;stroke:white;stroke-opacity:0.9;stroke-width:3px;"/>
                </g>
                <g transform="matrix(1,0,0,1,544.93,96.7929)">
                    <path d="M233.66,185.57L277.345,185.57" style="fill:none;stroke:white;stroke-opacity:0.9;stroke-width:3px;"/>
                </g>
                <g transform="matrix(1,0,0,1,564.096,87.1121)">
                    <path d="M233.66,185.57L277.345,185.57" style="fill:none;stroke:white;stroke-opacity:0.9;stroke-width:3px;"/>
                </g>
            </g>
        </g>
    </g>
    <defs>
        <linearGradient id="_Linear1" x1="0" y1="0" x2="1" y2="0" gradientUnits="userSpaceOnUse" gradientTransform="matrix(6.38992e-15,104.355,-104.355,6.38992e-15,601.027,143.629)"><stop offset="0" style="stop-color:rgb(250,200,200);stop-opacity:1"/><stop offset="0.24" style="stop-color:rgb(255,162,199);stop-opacity:1"/><stop offset="0.6" style="stop-color:rgb(254,75,146);stop-opacity:1"/><stop offset="1" style="stop-color:rgb(254,211,136);stop-opacity:1"/></linearGradient>
        <linearGradient id="_Linear2" x1="0" y1="0" x2="1" y2="0" gradientUnits="userSpaceOnUse" gradientTransform="matrix(-85.8454,114.135,-114.135,-85.8454,636.218,147.751)"><stop offset="0" style="stop-color:white;stop-opacity:0.6"/><stop offset="0.24" style="stop-color:rgb(255,136,154);stop-opacity:0.23"/><stop offset="0.55" style="stop-color:rgb(246,38,1);stop-opacity:0.36"/><stop offset="1" style="stop-color:rgb(254,182,37);stop-opacity:1"/></linearGradient>
        <radialGradient id="_Radial3" cx="0" cy="0" r="1" gradientUnits="userSpaceOnUse" gradientTransform="matrix(11.0495,57.0213,-129.264,34.2164,629.54,251.128)"><stop offset="0" style="stop-color:rgb(253,243,233);stop-opacity:1"/><stop offset="1" style="stop-color:rgb(165,165,165);stop-opacity:1"/></radialGradient>
    </defs>
</svg>
