<svg width="24" height="38" viewBox="0 0 24 38" fill="none" xmlns="http://www.w3.org/2000/svg">
<path fill-rule="evenodd" clip-rule="evenodd" d="M1 3V37L12 30.494L23 37V3C23 1.89543 22.1046 1 21 1H3C1.89543 1 1 1.89543 1 3ZM14.781 17.5952L12 12L9.219 17.5952L3 18.4979L7.5 22.8507L6.438 29L12 26.0952L17.562 29L16.5 22.8507L21 18.4979L14.781 17.5952Z" fill="#E3E3E3"/>
<path d="M1 37H0.5V37.8766L1.25454 37.4304L1 37ZM12 30.494L12.2545 30.0636L12 29.9131L11.7455 30.0636L12 30.494ZM23 37L22.7455 37.4304L23.5 37.8766V37H23ZM12 12L12.4477 11.7775L12 10.8766L11.5523 11.7775L12 12ZM14.781 17.5952L14.3333 17.8177L14.4499 18.0523L14.7092 18.09L14.781 17.5952ZM9.219 17.5952L9.29083 18.09L9.55012 18.0523L9.66674 17.8177L9.219 17.5952ZM3 18.4979L2.92817 18.0031L1.9205 18.1494L2.65237 18.8573L3 18.4979ZM7.5 22.8507L7.99271 22.9358L8.03771 22.6752L7.84763 22.4913L7.5 22.8507ZM6.438 29L5.94529 28.9149L5.77322 29.9113L6.66947 29.4432L6.438 29ZM12 26.0952L12.2315 25.652L12 25.5311L11.7685 25.652L12 26.0952ZM17.562 29L17.3305 29.4432L18.2268 29.9113L18.0547 28.9149L17.562 29ZM16.5 22.8507L16.1524 22.4913L15.9623 22.6752L16.0073 22.9358L16.5 22.8507ZM21 18.4979L21.3476 18.8573L22.0795 18.1494L21.0718 18.0031L21 18.4979ZM1.5 37V3H0.5V37H1.5ZM11.7455 30.0636L0.745461 36.5696L1.25454 37.4304L12.2545 30.9243L11.7455 30.0636ZM23.2545 36.5696L12.2545 30.0636L11.7455 30.9243L22.7455 37.4304L23.2545 36.5696ZM22.5 3V37H23.5V3H22.5ZM21 1.5C21.8284 1.5 22.5 2.17157 22.5 3H23.5C23.5 1.61929 22.3807 0.5 21 0.5V1.5ZM3 1.5H21V0.5H3V1.5ZM1.5 3C1.5 2.17157 2.17157 1.5 3 1.5V0.5C1.61929 0.5 0.5 1.61929 0.5 3H1.5ZM11.5523 12.2225L14.3333 17.8177L15.2287 17.3726L12.4477 11.7775L11.5523 12.2225ZM9.66674 17.8177L12.4477 12.2225L11.5523 11.7775L8.77126 17.3726L9.66674 17.8177ZM3.07183 18.9927L9.29083 18.09L9.14717 17.1003L2.92817 18.0031L3.07183 18.9927ZM7.84763 22.4913L3.34763 18.1385L2.65237 18.8573L7.15237 23.2101L7.84763 22.4913ZM6.93071 29.0851L7.99271 22.9358L7.00729 22.7656L5.94529 28.9149L6.93071 29.0851ZM11.7685 25.652L6.20653 28.5568L6.66947 29.4432L12.2315 26.5384L11.7685 25.652ZM17.7935 28.5568L12.2315 25.652L11.7685 26.5384L17.3305 29.4432L17.7935 28.5568ZM16.0073 22.9358L17.0693 29.0851L18.0547 28.9149L16.9927 22.7656L16.0073 22.9358ZM20.6524 18.1385L16.1524 22.4913L16.8476 23.2101L21.3476 18.8573L20.6524 18.1385ZM14.7092 18.09L20.9282 18.9927L21.0718 18.0031L14.8528 17.1003L14.7092 18.09Z" fill="#E3E3E3"/>
</svg>
