<svg xmlns="http://www.w3.org/2000/svg" width="100" height="100" viewBox="0 0 437 140" stroke-linejoin="round"><style>.a{fill:none;stroke-width:2px;stroke:#000;}</style><path d="M54.5 92.1l18.2-43.5 18.2 43.5" class="a"/><path d="M172 68.1l13.6-32.6 13.6 32.6" class="a"/><path d="M129.4 24l9.6-23 9.6 23" class="a"/><path d="M327.1 84.3l13.5-32.2 13.5 32.2" class="a"/><path d="M222 126.7l13.6-32.6 13.6 32.6" class="a"/><path d="M266.8 88.8l13.6-32.6 13.6 32.6" class="a"/><path d="M172.8 127l18.7-44.7 18.7 44.7" class="a"/><path d="M1 138.8l18.7-44.7 18.7 44.7" class="a"/><path d="M225.5 56.2l10.2-24.4 10.2 24.4" class="a"/><path d="M382.9 104.2l10.8-25.9 10.8 25.9" class="a"/><path d="M418.7 53.8l8.2-19.6 8.2 19.6" class="a"/><path d="M292.5 129.6l8.2-19.6 8.2 19.6" class="a"/><path d="M27.2 68.1l12.2-29.2 12.2 29.2" class="a"/><path d="M120.4 101.3l12.2-29.2 12.2 29.2" class="a"/><path d="M95.3 68.6l12.1-28.9 12.1 28.9" class="a"/></svg>
