<?xml version="1.0" encoding="UTF-8" standalone="no"?>
<svg
   xmlns:dc="http://purl.org/dc/elements/1.1/"
   xmlns:cc="http://creativecommons.org/ns#"
   xmlns:rdf="http://www.w3.org/1999/02/22-rdf-syntax-ns#"
   xmlns:svg="http://www.w3.org/2000/svg"
   xmlns="http://www.w3.org/2000/svg"
   xmlns:sodipodi="http://sodipodi.sourceforge.net/DTD/sodipodi-0.dtd"
   xmlns:inkscape="http://www.inkscape.org/namespaces/inkscape"
   width="100%"
   height="100%"
   viewBox="0 0 231 237"
   version="1.1"
   xml:space="preserve"
   style="fill-rule:evenodd;clip-rule:evenodd;stroke-linejoin:round;stroke-miterlimit:2;"
   id="svg26"
   sodipodi:docname="icon.svg"
   inkscape:version="0.92.4 (5da689c313, 2019-01-14)"><metadata
   id="metadata32"><rdf:RDF><cc:Work
       rdf:about=""><dc:format>image/svg+xml</dc:format><dc:type
         rdf:resource="http://purl.org/dc/dcmitype/StillImage" /><dc:title></dc:title></cc:Work></rdf:RDF></metadata><defs
   id="defs30" /><sodipodi:namedview
   pagecolor="#ffffff"
   bordercolor="#666666"
   borderopacity="1"
   objecttolerance="10"
   gridtolerance="10"
   guidetolerance="10"
   inkscape:pageopacity="0"
   inkscape:pageshadow="2"
   inkscape:window-width="1918"
   inkscape:window-height="1038"
   id="namedview28"
   showgrid="false"
   inkscape:zoom="0.99578059"
   inkscape:cx="-66.266949"
   inkscape:cy="118.5"
   inkscape:window-x="0"
   inkscape:window-y="0"
   inkscape:window-maximized="0"
   inkscape:current-layer="svg26" />
    <g
   transform="matrix(0.96945833,0,0,0.94460072,-24913.135,-2064.4426)"
   id="g24"
   inkscape:export-xdpi="220.28"
   inkscape:export-ydpi="220.28">
        <g
   transform="matrix(1,0,0,10.679,25422.8,782.543)"
   id="g22">
            <g
   transform="matrix(0.68429,0,0,0.500738,209.521,53.4878)"
   id="g20">
                <g
   transform="matrix(5.14309,0,0,0.392884,-117968,-1553.9)"
   id="g4">
                    <path
   d="m 23021.3,4365.6 c 0,-8.04 -3.9,-14.56 -8.7,-14.56 h -48 c -4.8,0 -8.7,6.52 -8.7,14.56 v 83.41 c 0,8.04 3.9,14.57 8.7,14.57 h 48 c 4.8,0 8.7,-6.53 8.7,-14.57 z"
   style="fill:#171c3d"
   id="path2"
   inkscape:connector-curvature="0" />
                </g>
                <g
   transform="matrix(3.83463,0,0,0.490868,-1118.69,133.203)"
   id="g18">
                    <g
   transform="matrix(0.182619,-0.032196,0,0.179369,-3849.48,59.5806)"
   id="g8">
                        <path
   d="m 23021.3,4358.98 c 0,-4.38 -3.4,-7.94 -7.6,-7.94 h -50.2 c -4.2,0 -7.6,3.56 -7.6,7.94 v 96.65 c 0,4.39 3.4,7.95 7.6,7.95 h 50.2 c 4.2,0 7.6,-3.56 7.6,-7.95 z"
   style="fill:#ffffff"
   id="path6"
   inkscape:connector-curvature="0" />
                    </g>
                    <g
   transform="matrix(0.182619,-0.032196,0,0.179369,-3825.6,20.7623)"
   id="g12">
                        <path
   d="m 23021.3,4358.98 c 0,-4.38 -3.4,-7.94 -7.6,-7.94 h -50.2 c -4.2,0 -7.6,3.56 -7.6,7.94 v 96.65 c 0,4.39 3.4,7.95 7.6,7.95 h 50.2 c 4.2,0 7.6,-3.56 7.6,-7.95 z"
   style="fill:#ff3646"
   id="path10"
   inkscape:connector-curvature="0" />
                    </g>
                    <g
   transform="matrix(0.195663,-0.0344957,0.204668,0.450774,-5039.44,-1103.13)"
   id="g16">
                        <path
   d="m 23021.3,4354.17 c 0,-1.73 -3.4,-3.13 -7.6,-3.13 h -50.2 c -4.2,0 -7.6,1.4 -7.6,3.13 v 106.27 c 0,1.73 3.4,3.14 7.6,3.14 h 50.2 c 4.2,0 7.6,-1.41 7.6,-3.14 z"
   style="fill:#ffffff"
   id="path14"
   inkscape:connector-curvature="0" />
                    </g>
                </g>
            </g>
        </g>
    </g>
</svg>